<svg width="20" height="20" viewBox="0 0 20 20" fill="none" xmlns="http://www.w3.org/2000/svg">
<g clip-path="url(#clip0_2567_1969)">
<path d="M12.2271 1.48092C12.2271 1.2925 12.3804 1.13917 12.5688 1.13917H14.5434C14.7318 1.13917 14.8851 1.2925 14.8851 1.48092V3.51681H16.0243V1.48092C16.0243 0.664327 15.36 0 14.5434 0H12.5688C11.7522 0 11.0879 0.664327 11.0879 1.48092V3.51681H12.2271V1.48092Z" fill="#FDC65C"/>
<path d="M6.92381 18.3028C6.67494 17.9161 6.53125 17.4583 6.53125 16.9737V8.43433H1.32903C0.596204 8.43433 0 9.03053 0 9.76336V16.9737C0 17.6421 0.495957 18.1966 1.13917 18.289V18.8722C1.13917 19.1868 1.39419 19.4418 1.70876 19.4418C2.02332 19.4418 2.27834 19.1868 2.27834 18.8722V18.3027H6.92381V18.3028ZM2.27834 10.5228C2.27834 10.2082 2.53337 9.95322 2.84793 9.95322C3.16249 9.95322 3.41751 10.2082 3.41751 10.5228V16.2143C3.41751 16.5289 3.16249 16.7839 2.84793 16.7839C2.53337 16.7839 2.27834 16.5289 2.27834 16.2143V10.5228Z" fill="#FDC65C"/>
<path d="M5.31617 6.3984C5.31617 6.20998 5.46951 6.05665 5.65792 6.05665H6.53129V5.98507C6.53129 5.60288 6.61863 5.24074 6.77439 4.91748H5.65792C4.84133 4.91748 4.177 5.58181 4.177 6.3984V7.29512H5.31617V6.3984Z" fill="#FDC65C"/>
<path d="M18.1128 4.65601H8.99944C8.26661 4.65601 7.67041 5.25221 7.67041 5.98504V16.9737C7.67041 17.642 8.16637 18.1965 8.80958 18.2889V18.8721C8.80958 19.1867 9.0646 19.4417 9.37917 19.4417C9.69373 19.4417 9.94875 19.1867 9.94875 18.8721V18.3027H17.1635V18.8721C17.1635 19.1867 17.4185 19.4417 17.7331 19.4417C18.0477 19.4417 18.3027 19.1867 18.3027 18.8721V18.2889C18.9459 18.1965 19.4418 17.642 19.4418 16.9737V5.98504C19.4418 5.25217 18.8456 4.65601 18.1128 4.65601ZM11.0879 16.2142C11.0879 16.5288 10.8329 16.7838 10.5183 16.7838C10.2038 16.7838 9.94875 16.5288 9.94875 16.2142V6.74449C9.94875 6.42992 10.2038 6.1749 10.5183 6.1749C10.8329 6.1749 11.0879 6.42992 11.0879 6.74449V16.2142ZM16.5939 16.7838C16.2794 16.7838 16.0243 16.5288 16.0243 16.2142V6.74449C16.0243 6.42992 16.2794 6.1749 16.5939 6.1749C16.9085 6.1749 17.1635 6.42992 17.1635 6.74449V16.2142C17.1635 16.5288 16.9085 16.7838 16.5939 16.7838Z" fill="#FDC65C"/>
</g>
<defs>
<clipPath id="clip0_2567_1969">
<rect width="19.4419" height="19.4419" fill="white"/>
</clipPath>
</defs>
</svg>
