<svg width="20" height="20" viewBox="0 0 20 20" fill="none" xmlns="http://www.w3.org/2000/svg">
<path d="M10 2C14.4183 2 18 5.58172 18 10C18 14.4183 14.4183 18 10 18C5.58172 18 2 14.4183 2 10C2 5.58172 5.58172 2 10 2ZM10 5.40039C9.66863 5.40039 9.40039 5.66863 9.40039 6V10C9.40039 10.1591 9.46365 10.3113 9.57617 10.4238L12.4043 13.2529C12.6386 13.4871 13.0187 13.4872 13.2529 13.2529C13.4872 13.0187 13.4871 12.6386 13.2529 12.4043L10.5996 9.75098V6C10.5996 5.66863 10.3314 5.40039 10 5.40039Z" fill="#B2B2B2"/>
</svg>
