<svg width="530" height="61" viewBox="0 0 530 61" fill="none" xmlns="http://www.w3.org/2000/svg">
<g clip-path="url(#clip0_280_1468)">
<path d="M12.4864 23.6074H15.9013V29.3808C14.761 29.6193 13.8878 29.7401 12.9306 29.7401C9.18558 29.7401 7.86523 27.5255 7.86523 23.88C7.86523 19.9619 9.69571 17.7473 13.3447 17.7473C13.8068 17.7473 14.68 17.7814 15.7693 17.9517V21.6468H14.9771L14.53 20.2344C14.1009 18.8902 13.5907 18.2243 12.7805 18.2243C11.3792 18.2243 10.635 20.1818 10.635 23.8459C10.635 27.5255 10.932 29.2631 12.7625 29.2631C13.0116 29.2631 13.3057 29.229 13.5877 29.1454V24.8494L12.4834 24.0658V23.6074H12.4864ZM15.8353 39.1063C15.8353 41.4231 14.3019 42.7518 11.5952 42.7518C10.854 42.7518 9.76473 42.6341 8.74146 42.4607V37.9324H9.53367L9.86376 39.0041C10.605 41.4726 11.1331 42.2903 12.0753 42.2903C13.0656 42.2903 13.7738 41.389 13.7738 40.1966C13.7738 39.2271 13.3297 38.5457 12.3724 38.0161L10.722 37.0962C9.44965 36.3993 8.75647 35.309 8.75647 33.9803C8.75647 31.9701 10.3559 30.7622 12.9816 30.7622C13.5757 30.7622 14.2689 30.8148 15.3732 30.9666V34.6617H14.581L14.1369 33.2493C13.6898 31.7502 13.2126 31.2051 12.3394 31.2051C11.3642 31.2051 10.788 31.8524 10.788 32.7878C10.788 33.621 11.2351 34.2188 12.1083 34.7298L13.7738 35.6993C15.1751 36.517 15.8353 37.6072 15.8353 39.1063ZM23.1302 41.7824L23.4603 42.2934V42.5505H20.9367L20.8196 41.5625C20.5556 42.312 19.8624 42.7549 18.9711 42.7549C17.6508 42.7549 16.8256 41.9032 16.8256 40.5063C16.8256 39.1435 17.5668 38.2422 19.8444 37.3223L20.8166 36.932V35.6559C20.8166 34.5316 20.6186 34.0732 20.0094 34.0732C19.5143 34.0732 19.2352 34.3458 18.7551 35.5878L18.2119 36.9785H17.4708V34.2002C18.443 33.8935 19.4183 33.6891 20.2585 33.6891C22.122 33.6891 23.1302 34.609 23.1302 36.2785V41.7824ZM24.0845 25.2087C24.0845 28.1047 22.5841 29.7401 20.6516 29.7401C18.7221 29.7401 17.2217 28.1047 17.2217 25.2087C17.2217 22.3127 18.7221 20.6774 20.6546 20.6774C22.5841 20.6774 24.0845 22.3127 24.0845 25.2087ZM20.8196 40.3514V37.4059L20.5075 37.5422C19.5323 37.951 19.1692 38.8709 19.1692 40.2151C19.1692 41.2218 19.4003 41.7979 19.9434 41.7979C20.4865 41.7979 20.8196 41.2527 20.8196 40.3514ZM21.6598 25.2087C21.6598 21.938 21.3958 21.0707 20.6546 21.0707C19.9134 21.0707 19.6493 21.938 19.6493 25.2087C19.6493 28.4795 19.9134 29.3467 20.6546 29.3467C21.3958 29.3467 21.6598 28.4795 21.6598 25.2087ZM29.945 40.435L30.2421 40.5899C29.714 42.1571 29.0388 42.7518 27.7334 42.7518C25.6059 42.7518 24.4176 41.101 24.4176 38.2205C24.4176 35.3431 25.8039 33.6891 28.0635 33.6891C28.6727 33.6891 29.4829 33.7913 30.1761 34.0794V36.9754H29.4019L29.0898 35.8851C28.6757 34.4387 28.4476 34.0639 28.0335 34.0639C27.3733 34.0639 26.8452 34.9497 26.8452 38.3227C26.8452 41.0297 27.2413 42.0178 28.2466 42.0178C28.9218 42.0209 29.4979 41.578 29.945 40.435ZM28.1115 29.5356H25.1408V29.2817L25.4708 28.7706V19.265L25.1408 18.7539V18.4969L27.7815 18.2924V28.7675L28.1115 29.2786V29.5356ZM32.1716 29.7401C30.3561 29.7401 29.2668 28.0365 29.2668 25.1251C29.2668 22.2291 30.4041 20.6805 32.1536 20.6805C33.0448 20.6805 33.54 21.0366 33.753 21.7521V19.265L33.4229 18.7539V18.4969L36.0636 18.2924V28.7675L36.3937 29.2786V29.5325H34.0501L33.8701 28.2379C33.609 29.3467 33.1138 29.7401 32.1716 29.7401ZM37.9631 41.7824L38.2932 42.2934V42.5505H35.3224V42.2934L35.6525 41.7824V35.6497C35.6525 34.9188 35.4395 34.4758 34.9263 34.4758C34.3142 34.4758 33.8701 35.0055 33.8701 36.0431V41.7824L34.2001 42.2934V42.5505H31.2294V42.2934L31.5594 41.7824V32.2768L31.2294 31.7657V31.5117L33.8701 31.3073V34.832C34.1671 34.1011 34.8423 33.6922 35.7996 33.6922C37.1529 33.6922 37.9601 34.5781 37.9601 36.2971V41.7824H37.9631ZM31.6945 25.1561C31.6945 28.2224 31.9585 29.1578 32.6847 29.1578C33.591 29.1578 33.756 27.8135 33.756 25.122C33.756 22.5172 33.576 21.2225 32.6997 21.2225C31.9585 21.2225 31.6945 22.1424 31.6945 25.1561ZM48.2618 28.7675L48.5919 29.2786V29.5325H45.6211V29.2786L45.9512 28.7675V22.449C45.9512 21.8358 45.7532 21.461 45.291 21.461C44.7149 21.461 44.2528 21.9906 44.2528 23.0096V28.7675L44.5829 29.2786V29.5325H41.6121V29.2786L41.9422 28.7675V22.449C41.9422 21.8358 41.7441 21.461 41.282 21.461C40.7058 21.461 40.2437 21.9906 40.2437 23.0096V28.7675L40.5738 29.2786V29.5325H37.603V29.2786L37.9331 28.7675V21.8358L37.603 21.4269V21.1729L39.9797 20.8818H40.1777L40.2437 21.8358C40.5228 21.0862 41.216 20.6774 42.1582 20.6774C43.1635 20.6774 43.8237 21.1884 44.1207 22.1083C44.3668 21.2225 45.144 20.6774 46.1343 20.6774C47.4366 20.6774 48.2618 21.5632 48.2618 23.2822V28.7675ZM45.177 40.0448C45.177 41.5253 44.2528 42.7518 42.0262 42.7518C41.45 42.7518 40.6728 42.6837 39.4695 42.4607V39.2952H40.1447L40.3577 39.9766C40.8859 41.7142 41.396 42.3616 42.2062 42.3616C42.9654 42.3616 43.4606 41.7979 43.4606 40.9306C43.4606 40.2151 43.1125 39.7227 42.2903 39.2612L40.8709 38.4776C39.9646 37.9665 39.4695 37.1674 39.4695 36.1794C39.4695 34.6307 40.6428 33.6922 42.5873 33.6922C43.1485 33.6922 43.8747 33.7759 44.6669 33.9462V36.4333H43.9917L43.6436 35.5289C43.2475 34.4387 42.8694 34.0825 42.2422 34.0825C41.5671 34.0825 41.171 34.4913 41.171 35.1727C41.171 35.7519 41.501 36.1422 42.3083 36.6192L43.7096 37.4369C44.6639 38.0006 45.177 38.7997 45.177 40.0448ZM55.8538 28.7675L56.1839 29.2786V29.5325H53.6602L53.5462 28.5445C53.2821 29.2941 52.589 29.737 51.6977 29.737C50.3774 29.737 49.5522 28.8852 49.5522 27.4883C49.5522 26.1255 50.2934 25.2242 52.5709 24.3043L53.5432 23.914V22.638C53.5432 21.5136 53.3451 21.0552 52.736 21.0552C52.2409 21.0552 51.9618 21.3278 51.4817 22.5698L50.9385 23.9667H50.1943V21.1915C51.1696 20.8849 52.1418 20.6805 52.9821 20.6805C54.8455 20.6805 55.8538 21.6004 55.8538 23.2698V28.7675ZM53.5432 27.3366V24.391L53.2311 24.5273C52.2589 24.9362 51.8958 25.856 51.8958 27.2003C51.8958 28.2069 52.1268 28.7861 52.67 28.7861C53.2131 28.7861 53.5432 28.241 53.5432 27.3366ZM64.334 29.2786V29.5325H61.3633V29.2786L61.6933 28.7675V22.6349C61.6933 21.9008 61.4803 21.461 60.9671 21.461C60.355 21.461 59.9109 21.9906 59.9109 23.0282V28.7675L60.241 29.2786V29.5325H57.2702V29.2786L57.6003 28.7675V21.8358L57.2702 21.4269V21.1729L59.6468 20.8818H59.8449L59.9109 21.8358C60.1899 21.0862 60.8681 20.6774 61.8404 20.6774C63.1937 20.6774 64.0009 21.5632 64.0009 23.2822V28.7675L64.334 29.2786Z" fill="white"/>
<g clip-path="url(#clip1_280_1468)">
<path d="M128.07 19.0124V30.2346L127.927 30.3538L127.784 30.4716L127.647 30.5958L127.516 30.7199L127.39 30.844L127.266 30.9738L127.146 31.1042L127.027 31.2339V19.0124H114.49V29.2303H113.453V19.0117H100.915V29.2465H99.8778V19.0124H87.3402V30.6785L84.1389 41.2562H86.952L88.3648 36.5736H88.7706L91.1078 41.2562H94.5061L92.2403 36.5736H97.3794L95.9546 41.2562H99.0249L100.432 36.5855H101.112V36.5736H107.955L106.596 41.2443H109.696L111.014 36.5736H112.408L112.445 41.2443H115.044L118.031 36.5736H119.986L118.973 41.2443H122.025L123.02 36.5736H124.785L124.774 36.8394L124.78 37.1115L124.792 37.371L124.816 37.6319L124.833 37.756L124.851 37.8801L124.875 38.0043L124.899 38.1284L124.928 38.2525L124.959 38.371L124.994 38.4889L125.03 38.6074L125.072 38.7259L125.113 38.8381L125.161 38.9503L125.209 39.0569L125.263 39.1691L125.316 39.2757L125.376 39.376L125.435 39.4826L125.501 39.5829L125.572 39.6776L125.644 39.7778L125.721 39.8669L125.799 39.9616L125.877 40.0499L125.966 40.139L126.055 40.2218L126.169 40.3157L126.282 40.4104L126.401 40.4995L126.527 40.5822L126.652 40.665L126.777 40.7421L126.908 40.8067L127.045 40.8775L127.176 40.9371L127.313 40.996L127.451 41.0493L127.594 41.1026L127.737 41.1496L127.88 41.1917L128.022 41.2323L128.166 41.2674L128.452 41.3333L128.744 41.3803L129.03 41.4224L129.316 41.4575L129.597 41.4806L129.871 41.4925L130.139 41.5044H130.395L130.742 41.4988L131.087 41.4932L131.439 41.4757L131.791 41.4582L132.143 41.428L132.494 41.3985L132.845 41.3635L133.197 41.3214L133.555 41.2744L133.913 41.2211L134.27 41.1622L134.628 41.1033L134.986 41.0381L135.343 40.9672L135.701 40.8964L136.065 40.8137L137.126 36.5736H140.608V19.0131H128.07V19.0124ZM88.5022 36.136L88.5204 36.0708L88.5625 36.136H88.5022ZM99.4244 29.8447L99.2457 30.4422L97.5763 35.9403L97.5104 36.136H92.0259L91.6026 35.2369L97.5104 29.2479H93.7134L89.093 34.185L90.5892 29.2479H87.7874V19.4556H99.4244V29.844V29.8447ZM102.662 34.4922L102.572 34.4978L102.488 34.5034L102.399 34.509H102.071L101.97 34.5146H101.874L101.129 34.509L101.475 33.2439L101.636 32.6169L102.03 31.1442H102.286L102.411 31.1393H103.109L103.46 31.1449L103.783 31.1561L103.926 31.1617L104.062 31.1736L104.193 31.1919L104.313 31.2094L104.42 31.2269L104.521 31.2564L104.617 31.2865L104.701 31.3216L104.772 31.3567L104.837 31.4044L104.897 31.452L104.945 31.5109L104.975 31.5586L104.999 31.6056L105.022 31.6589L105.04 31.7178L105.052 31.7831L105.059 31.8483V31.9955L105.052 32.079L105.046 32.1618L105.029 32.2564L105.011 32.3504L104.957 32.5517L104.891 32.7761L104.826 32.9654L104.754 33.1492L104.677 33.3203L104.593 33.4802L104.552 33.5503L104.509 33.6219L104.462 33.6927L104.409 33.7579L104.355 33.8231L104.301 33.882L104.242 33.9409L104.181 33.9942L104.116 34.0419L104.05 34.0952L103.979 34.1366L103.902 34.1836L103.824 34.2257L103.74 34.2607L103.657 34.2958L103.568 34.3253L103.472 34.361L103.371 34.3849L103.263 34.408L103.156 34.4319L103.037 34.4494L102.918 34.4676L102.792 34.4795L102.661 34.4915L102.662 34.4922ZM111.139 36.136L112.361 31.8195L112.409 36.136H111.139ZM112.999 29.2296H110.09L108.086 36.136H104.999L105.142 36.0764L105.285 36.0175L105.422 35.9586L105.559 35.8934L105.69 35.8281L105.815 35.751L105.941 35.6809L106.06 35.6037L106.179 35.521L106.292 35.4382L106.4 35.3555L106.507 35.2608L106.608 35.1724L106.704 35.0714L106.799 34.9768L106.889 34.8709L106.978 34.7699L107.062 34.6577L107.139 34.5511L107.216 34.4333L107.288 34.3147L107.353 34.1962L107.419 34.0721L107.479 33.9423L107.538 33.8119L107.592 33.6822L107.639 33.5461L107.688 33.4045L107.723 33.2621L107.765 33.1204L107.795 32.9661L107.824 32.8189L107.866 32.5825L107.901 32.3581L107.926 32.1449L107.943 31.9436L107.95 31.7431L107.943 31.5593L107.938 31.3763L107.914 31.2045L107.89 31.0453L107.848 30.8854L107.807 30.7381L107.747 30.5958L107.681 30.4597L107.61 30.3237L107.526 30.1995L107.431 30.081L107.354 29.9983L107.276 29.9155L107.192 29.8454L107.103 29.7794L107.008 29.7149L106.913 29.6553L106.811 29.6027L106.71 29.555L106.603 29.508L106.496 29.4723L106.382 29.4372L106.269 29.4014L106.149 29.372L106.03 29.3481L105.911 29.3243L105.786 29.3068L105.529 29.2717L105.273 29.2535L105.011 29.2359L104.743 29.2303H101.362V19.4563H112.999V29.2296ZM120.07 36.136H118.323L120.969 31.9969L120.07 36.136ZM126.573 29.4246L126.568 31.8195L126.418 32.0264L126.282 32.2396L126.144 32.4521L126.019 32.6653L125.9 32.8778L125.781 33.0966L125.679 33.3098L125.578 33.5223L125.483 33.7292L125.399 33.9423L125.315 34.1492L125.244 34.3505L125.179 34.5511L125.119 34.746L125.065 34.9354L125.017 35.1247L124.987 35.2489L124.958 35.3793L124.928 35.5034L124.904 35.6332L124.88 35.7573L124.863 35.8814L124.844 36.0056L124.832 36.136H123.122L124.582 29.2472L119.658 29.2415L115.252 36.136H114.93V19.4563H126.573V29.4246ZM133.287 38.9559L133.042 38.998L132.792 39.0331L132.541 39.0681L132.297 39.0983L132.053 39.1214L131.808 39.1397L131.569 39.1516H131.176L131.021 39.146L130.872 39.1341L130.723 39.1158L130.58 39.0927L130.443 39.0688L130.306 39.0394L130.175 39.0043L130.049 38.9622L129.924 38.9209L129.805 38.8676L129.692 38.8143L129.578 38.7497L129.471 38.6845L129.369 38.6137L129.274 38.5429L129.179 38.4601L129.095 38.371L129.012 38.2827L128.935 38.1817L128.863 38.0814L128.798 37.9692L128.738 37.857L128.678 37.7385L128.631 37.6143L128.589 37.4783L128.553 37.3422L128.517 37.2006L128.493 37.0533L128.475 36.899L128.463 36.7391L128.457 36.5736H133.883L133.286 38.9566L133.287 38.9559ZM140.166 36.136H137.233L137.716 34.2081H131.838L131.355 36.136H128.512V35.7398L128.547 35.5743L128.577 35.4088L128.613 35.2313L128.648 35.0539L128.702 34.8589L128.756 34.6633L128.815 34.4683L128.881 34.279L128.952 34.0896L129.03 33.9003L129.114 33.7179L129.197 33.5342L129.292 33.3512L129.388 33.1793L129.489 33.0019L129.602 32.8364L129.716 32.6709L129.828 32.511L129.955 32.3574L130.085 32.2101L130.222 32.0678L130.36 31.938L130.508 31.8076L130.658 31.6835L130.812 31.5713L130.979 31.4647L131.146 31.37L131.319 31.2816L131.498 31.1989L131.683 31.128L131.873 31.0684L132.07 31.0214L132.274 30.9794L132.482 30.9506L132.696 30.9324L132.917 30.9268L133.09 30.9324L133.262 30.9443L133.436 30.9681L133.602 31.0032L133.686 31.0271L133.764 31.0509L133.841 31.0747L133.913 31.1098L133.984 31.1393L134.056 31.1813L134.121 31.222L134.187 31.2641L134.246 31.3167L134.306 31.37L134.36 31.4233L134.413 31.4885L134.461 31.5474L134.503 31.6182L134.539 31.6954L134.574 31.7725L134.605 31.8546L134.628 31.9436L134.646 32.032L134.664 32.133L134.67 32.2333V32.4521L134.658 32.5706H138.164L138.217 32.328L138.265 32.0502L138.289 31.9023L138.301 31.7424L138.313 31.5832V31.4177L138.307 31.2459L138.289 31.0684L138.271 30.9857L138.259 30.8973L138.235 30.8082L138.212 30.7199L138.182 30.6252L138.152 30.5361L138.117 30.4478L138.075 30.3587L138.033 30.2704L137.979 30.1813L137.926 30.0929L137.866 30.0046L137.795 29.9099L137.718 29.8208L137.639 29.7325L137.556 29.6497L137.467 29.567L137.371 29.4898L137.276 29.419L137.174 29.3481L137.067 29.2773L136.96 29.2177L136.846 29.1588L136.727 29.0999L136.608 29.0466L136.483 28.9933L136.352 28.9456L136.221 28.8986L136.09 28.8565L135.947 28.8215L135.809 28.7864L135.66 28.7506L135.511 28.7212L135.362 28.6917L135.207 28.6679L135.046 28.6504L134.718 28.6146L134.384 28.5851L134.033 28.5732L133.675 28.5676L133.407 28.5732L133.127 28.5788L132.834 28.5964L132.53 28.6202L132.215 28.6553L131.892 28.6973L131.564 28.7499L131.231 28.8215L131.064 28.8565L130.891 28.8986L130.724 28.9456L130.551 28.9926L130.378 29.0459L130.206 29.1048L130.032 29.1644L129.866 29.2289L129.693 29.3005L129.519 29.3776L129.353 29.454L129.18 29.5368L129.013 29.6252L128.846 29.7198L128.679 29.8145L128.512 29.9211V19.4556H140.167V36.1353L140.166 36.136Z" fill="white"/>
</g>
<g clip-path="url(#clip2_280_1468)">
<path d="M214.09 33.9464C214.09 33.1312 214.761 32.4698 215.587 32.4698C216.413 32.4698 217.083 33.1312 217.083 33.9464C217.083 34.7616 216.413 35.4226 215.587 35.4226C214.761 35.4226 214.09 34.7616 214.09 33.9464Z" fill="white"/>
<path d="M166.358 30.0359C166.358 29.1006 166.175 28.4068 165.809 27.9547C165.442 27.5031 164.887 27.2775 164.139 27.2775H163.345V32.9968H163.953C164.783 32.9968 165.391 32.754 165.778 32.267C166.164 31.7808 166.358 31.037 166.358 30.0359ZM169.192 29.9384C169.192 31.6423 168.728 32.9553 167.8 33.8769C166.871 34.7989 165.566 35.2599 163.883 35.2599H160.614V25.0499H164.112C165.734 25.0499 166.986 25.469 167.869 26.3069C168.751 27.1452 169.192 28.3551 169.192 29.9386M178.248 35.2598H180.85V25.007H178.248V35.2598ZM184.504 31.4354C184.504 32.0891 184.591 32.5877 184.764 32.9304C184.937 33.2735 185.227 33.4448 185.635 33.4448C186.038 33.4448 186.324 33.2735 186.49 32.9304C186.656 32.5877 186.739 32.0891 186.739 31.4354C186.739 30.7851 186.655 30.2946 186.487 29.9636C186.318 29.6315 186.03 29.4654 185.621 29.4654C185.222 29.4654 184.937 29.6308 184.763 29.9597C184.591 30.2891 184.504 30.7809 184.504 31.4354ZM189.387 31.4354C189.387 32.6809 189.056 33.6525 188.393 34.3489C187.73 35.0457 186.801 35.3944 185.608 35.3944C184.464 35.3944 183.554 35.0381 182.877 34.3254C182.201 33.6127 181.862 32.6497 181.862 31.4355C181.862 30.1938 182.194 29.2291 182.857 28.5412C183.521 27.8533 184.451 27.5094 185.649 27.5094C186.389 27.5094 187.044 27.6688 187.611 27.9871C188.179 28.3053 188.617 28.7613 188.925 29.3552C189.233 29.9482 189.387 30.6421 189.387 31.4354ZM190.42 35.2598H193.022V27.644H190.42V35.2598ZM190.42 26.7228H193.022V25.0066H190.42V26.7228ZM198.293 33.3173C198.644 33.3173 199.063 33.2293 199.551 33.0546V34.9708C199.2 35.1229 198.866 35.2318 198.549 35.2963C198.232 35.3618 197.86 35.3942 197.435 35.3942C196.561 35.3942 195.932 35.1776 195.545 34.7452C195.16 34.3128 194.967 33.6489 194.967 32.7529V29.6134H194.056V27.6447H194.967V25.6998L197.588 25.2499V27.6446H199.248V29.6135H197.588V32.5777C197.588 33.0708 197.824 33.3173 198.293 33.3173ZM204.315 33.3173C204.666 33.3173 205.084 33.2293 205.572 33.0546V34.9708C205.222 35.1229 204.888 35.2318 204.571 35.2963C204.254 35.3618 203.883 35.3942 203.456 35.3942C202.583 35.3942 201.953 35.1776 201.567 34.7452C201.182 34.3128 200.988 33.6489 200.988 32.7529V29.6134H200.077V27.6447H200.988V25.6703L203.61 25.2499V27.6446H205.27V29.6135H203.61V32.5777C203.61 33.0708 203.845 33.3173 204.315 33.3173ZM208.855 30.5077C208.891 30.0907 209.012 29.7852 209.218 29.5899C209.425 29.3951 209.68 29.2977 209.986 29.2977C210.319 29.2977 210.585 29.4071 210.781 29.6275C210.979 29.8467 211.082 30.1402 211.09 30.5077H208.855ZM212.524 28.4073C211.906 27.8092 211.028 27.5096 209.893 27.5096C208.7 27.5096 207.782 27.8536 207.139 28.5414C206.495 29.2293 206.174 30.2162 206.174 31.5023C206.174 32.7477 206.521 33.7082 207.215 34.3824C207.909 35.0566 208.884 35.3941 210.14 35.3941C210.743 35.3941 211.261 35.3536 211.696 35.2728C212.128 35.193 212.547 35.0485 212.953 34.84L212.553 33.1237C212.258 33.2426 211.977 33.3339 211.712 33.3941C211.329 33.4818 210.909 33.5258 210.452 33.5258C209.95 33.5258 209.555 33.4049 209.264 33.1631C208.974 32.9208 208.82 32.5867 208.802 32.1611H213.452V30.9917C213.452 29.8668 213.143 29.005 212.524 28.4073ZM172.645 30.5077C172.681 30.0907 172.802 29.7852 173.008 29.5899C173.214 29.3951 173.47 29.2977 173.776 29.2977C174.109 29.2977 174.374 29.4071 174.571 29.6275C174.769 29.8467 174.872 30.1402 174.881 30.5077H172.645ZM176.315 28.4073C175.696 27.8092 174.819 27.5096 173.683 27.5096C172.49 27.5096 171.572 27.8536 170.929 28.5414C170.286 29.2293 169.964 30.2162 169.964 31.5023C169.964 32.7477 170.311 33.7082 171.006 34.3824C171.699 35.0566 172.674 35.3941 173.93 35.3941C174.533 35.3941 175.051 35.3536 175.486 35.2728C175.918 35.193 176.337 35.0485 176.743 34.84L176.343 33.1237C176.048 33.2426 175.767 33.3339 175.503 33.3941C175.119 33.4818 174.699 33.5258 174.242 33.5258C173.741 33.5258 173.345 33.4049 173.054 33.1631C172.764 32.9208 172.61 32.5867 172.592 32.1611H177.242V30.9917C177.242 29.8668 176.933 29.005 176.315 28.4073Z" fill="white"/>
</g>
<g clip-path="url(#clip3_280_1468)">
<path d="M249.414 25.9365V31.1788C249.414 31.2638 249.38 31.3453 249.32 31.4053C249.26 31.4654 249.178 31.4992 249.093 31.4992H247.433C247.348 31.4991 247.267 31.4654 247.206 31.4053C247.146 31.3452 247.112 31.2637 247.112 31.1788V22.652C247.112 22.567 247.146 22.4856 247.206 22.4255C247.266 22.3654 247.348 22.3316 247.433 22.3316H248.969C249.054 22.3316 249.136 22.3654 249.196 22.4255C249.256 22.4856 249.29 22.567 249.29 22.652V23.8528C249.29 23.8528 249.839 22.1399 251.468 22.1399C251.468 22.1399 253.079 21.9457 253.734 23.7292C253.734 23.7292 254.283 22.1399 255.947 22.1399C255.947 22.1399 258.423 21.9931 258.423 24.5474L258.441 25.9542V31.1964C258.441 31.2814 258.408 31.3629 258.347 31.423C258.287 31.4831 258.205 31.5168 258.12 31.5168H256.461C256.376 31.5168 256.294 31.483 256.234 31.423C256.173 31.3629 256.14 31.2814 256.14 31.1964L256.124 25.4774C256.172 24.1824 255.121 24.2766 255.121 24.2766C253.799 24.3002 253.926 25.9542 253.926 25.9542V31.1964C253.926 31.2814 253.892 31.3629 253.832 31.423C253.772 31.4831 253.69 31.5168 253.605 31.5168H251.946C251.861 31.5168 251.779 31.483 251.719 31.423C251.658 31.3629 251.625 31.2814 251.625 31.1964V25.6068C251.625 25.6068 251.722 24.2648 250.541 24.2648C250.541 24.2648 249.373 24.1118 249.414 25.9365ZM292.185 25.9209V31.163C292.185 31.2479 292.151 31.3294 292.091 31.3895C292.03 31.4496 291.949 31.4833 291.864 31.4834L290.138 31.5167C290.053 31.5167 289.971 31.4829 289.911 31.4228C289.85 31.3627 289.817 31.2813 289.817 31.1963V25.6068C289.817 25.6068 289.914 24.2648 288.733 24.2648C288.733 24.2648 287.606 24.2094 287.606 26.3136V31.1786C287.606 31.2636 287.572 31.3451 287.512 31.4052C287.452 31.4652 287.37 31.499 287.285 31.499H285.625C285.54 31.499 285.458 31.4652 285.398 31.4052C285.338 31.3451 285.304 31.2636 285.304 31.1786V22.652C285.304 22.5671 285.338 22.4856 285.398 22.4255C285.458 22.3654 285.54 22.3317 285.625 22.3316H287.161C287.246 22.3316 287.328 22.3654 287.388 22.4255C287.448 22.4856 287.482 22.567 287.482 22.652V23.8528C287.482 23.8528 288.031 22.1399 289.66 22.1399C289.66 22.1399 291.405 21.8759 291.992 23.696C291.993 23.6959 292.185 24.0714 292.185 25.9209ZM280.204 22.1046C278.082 22.1046 276.362 23.8881 276.362 26.8901C276.362 29.5331 277.69 31.6756 280.204 31.6756C282.577 31.6756 284.046 29.5331 284.046 26.8901C284.046 23.9411 282.326 22.1046 280.204 22.1046ZM281.544 26.9961C281.544 28.1262 281.402 28.7266 281.402 28.7266C281.2 29.9213 280.331 29.923 280.203 29.9167C280.064 29.9222 279.187 29.9098 279.006 28.7266C279.006 28.7266 278.864 28.1262 278.864 26.9961V26.8078C278.864 25.6776 279.006 25.0772 279.006 25.0772C279.187 23.8941 280.064 23.8816 280.203 23.887C280.331 23.8806 281.2 23.8822 281.402 25.0772C281.402 25.0772 281.544 25.6776 281.544 26.8078V26.9961ZM275.399 23.8409V22.6176C275.399 22.5326 275.365 22.4511 275.305 22.391C275.245 22.331 275.163 22.2972 275.078 22.2972H269.593C269.508 22.2972 269.426 22.3309 269.366 22.391C269.306 22.4511 269.272 22.5326 269.272 22.6176V23.8315C269.272 23.9164 269.306 23.9979 269.366 24.058C269.426 24.1181 269.508 24.1518 269.593 24.1519H272.454L269.068 29.0511C269.068 29.0511 268.934 29.2497 268.939 29.4691V30.9594C268.939 30.9594 268.917 31.4704 269.498 31.1738C269.498 31.1738 270.53 30.552 272.26 30.552C272.26 30.552 273.969 30.5308 275.109 31.2274C275.109 31.2274 275.582 31.4418 275.582 30.9703V29.6731C275.582 29.6731 275.625 29.3298 275.173 29.1155C275.173 29.1155 273.862 28.3973 272.142 28.5151L275.399 23.8409ZM245.832 29.9743L245.312 29.1857C245.147 28.8913 245.159 28.5616 245.159 28.5616V24.9241C245.23 21.7808 241.736 22.0516 241.736 22.0516C238.63 22.0516 238.171 24.4624 238.171 24.4624C238.041 24.9471 238.418 24.9588 238.418 24.9588L239.935 25.1124C239.935 25.1124 240.194 25.1714 240.288 24.8642C240.288 24.8642 240.488 23.8124 241.606 23.8124C242.822 23.8124 242.81 24.8534 242.81 24.8534V25.7249C240.382 25.8059 239.257 26.478 239.257 26.478C237.758 27.3256 237.852 29.0092 237.852 29.0092C237.852 31.7521 240.472 31.6342 240.472 31.6342C242.149 31.6342 243.14 30.41 243.14 30.41C243.435 30.9282 243.978 31.4223 243.978 31.4223C244.25 31.7162 244.533 31.4695 244.533 31.4695L245.761 30.4219C246.032 30.2215 245.832 29.9743 245.832 29.9743ZM241.29 29.9404C240.502 29.9404 240.209 29.159 240.34 28.3911C240.471 27.6232 241.151 27.0197 242.81 27.0373V27.5042C242.869 29.5439 241.947 29.9404 241.29 29.9404ZM267.881 29.9743L267.362 29.1857C267.196 28.8913 267.208 28.5616 267.208 28.5616V24.9241C267.279 21.7808 263.785 22.0516 263.785 22.0516C260.679 22.0516 260.22 24.4624 260.22 24.4624C260.091 24.9471 260.467 24.9588 260.467 24.9588L261.985 25.1124C261.985 25.1124 262.244 25.1714 262.338 24.8642C262.338 24.8642 262.538 23.8124 263.656 23.8124C264.872 23.8124 264.859 24.8534 264.859 24.8534V25.7249C262.431 25.8059 261.306 26.478 261.306 26.478C259.807 27.3256 259.902 29.0092 259.902 29.0092C259.902 31.7521 262.522 31.6342 262.522 31.6342C264.198 31.6342 265.19 30.41 265.19 30.41C265.485 30.9282 266.028 31.4223 266.028 31.4223C266.299 31.7162 266.583 31.4695 266.583 31.4695L267.81 30.4219C268.082 30.2215 267.881 29.9743 267.881 29.9743ZM263.34 29.9404C262.552 29.9404 262.259 29.159 262.389 28.3911C262.52 27.6232 263.201 27.0197 264.859 27.0373V27.5042C264.918 29.5439 263.996 29.9404 263.34 29.9404Z" fill="white"/>
<path d="M272.059 36.8594C272.059 36.8594 271.92 37.1003 272.091 37.1541C272.091 37.1541 272.283 37.2291 272.524 37.0067C272.524 37.0067 274.276 35.4803 274.318 32.7013C274.318 32.7013 274.331 32.3542 274.191 32.2592C274.191 32.2592 273.642 31.775 271.669 31.9223C271.669 31.9223 269.948 32.0381 269.009 32.8698C269.009 32.8698 268.924 32.9434 268.924 33.0381C268.924 33.0381 268.904 33.2425 269.42 33.1539C269.42 33.1539 271.141 32.9116 272.165 33.0381C272.165 33.0381 272.693 33.1012 272.84 33.2803C272.84 33.2803 273.083 33.4804 272.956 34.1434C272.956 34.1436 272.608 35.8279 272.059 36.8594Z" fill="white"/>
<path d="M271.712 34.1933C271.712 34.1933 271.969 34.5253 271.554 34.8116C271.554 34.8116 267.126 38.3448 259.689 38.3448C259.689 38.3448 252.034 38.7214 245.642 32.9294C245.642 32.9294 245.418 32.7331 245.557 32.5508C245.557 32.5508 245.682 32.3829 246.004 32.5655C246.004 32.5655 252.017 36.3022 259.913 36.3022C259.913 36.3022 265.402 36.5141 271.033 34.1125C271.033 34.1125 271.481 33.8807 271.712 34.1933Z" fill="white"/>
</g>
<g clip-path="url(#clip4_280_1468)">
<path d="M321.76 29.9785H324.188V33.3899C323.431 33.6334 322.474 33.7669 321.479 33.7669C317.449 33.7669 315.08 30.3148 315.08 26.9434C315.08 23.6368 317.223 21.3174 320.212 21.3174C322.104 21.3174 323.204 21.9584 324.189 22.8512V23.9642L326.035 22.1175C324.868 21.3272 323.177 20.5762 320.759 20.5762C315.453 20.5762 313.028 24.3729 313.028 27.4931C313.028 31.9345 316.262 34.61 320.327 34.61C322.298 34.61 324.047 34.3091 326.069 33.7465V30.2221C326.069 30.0419 326.148 29.9182 326.266 29.8096L326.904 29.1717H322.573L321.76 29.9785Z" fill="url(#paint0_linear_280_1468)"/>
<path d="M332.638 25.3425C329.584 25.3425 327.692 27.5746 327.692 29.9439C327.692 31.9889 329.216 34.4169 332.305 34.4169C335.276 34.4169 337.099 32.1804 337.099 29.7697C337.099 27.5241 335.318 25.3434 332.638 25.3434V25.3425ZM332.132 25.9933C334.285 25.9933 335.244 28.7991 335.244 30.8004C335.244 33.7767 333.012 33.8355 332.745 33.8355C331.723 33.8355 331.009 33.218 330.475 32.4081C330.004 31.6616 329.544 30.2748 329.544 28.9198C329.544 27.57 329.986 26.911 330.681 26.4261C331.25 26.0627 331.782 25.9933 332.131 25.9933H332.132Z" fill="url(#paint1_linear_280_1468)"/>
<path d="M352.604 25.3418C349.936 25.3418 348.493 27.0309 348.493 28.9168C348.493 30.3525 349.521 31.9722 351.643 31.9722H352.18C352.18 31.9722 352.033 32.3274 352.033 32.6705C352.033 33.1766 352.214 33.4607 352.6 33.8981C348.95 34.1205 347.483 35.5932 347.483 37.176C347.483 38.562 348.81 39.9261 351.598 39.9261C354.9 39.9261 356.61 38.0929 356.61 36.2938C356.61 35.0255 355.978 34.3302 354.378 33.1313C353.908 32.7656 353.816 32.5327 353.816 32.2589C353.816 31.8668 354.051 31.6073 354.137 31.5094C354.288 31.3495 354.551 31.1671 354.649 31.0796C355.186 30.6241 355.946 29.9501 355.946 28.6048C355.946 27.6818 355.562 26.8878 354.687 26.1443H355.755L356.557 25.342H352.604V25.3418ZM351.868 25.942C352.352 25.942 352.756 26.1132 353.182 26.4684C353.656 26.8952 354.412 28.0421 354.412 29.4612C354.412 30.9927 353.222 31.412 352.579 31.412C352.263 31.412 351.886 31.3238 351.566 31.1051C350.856 30.6444 350.151 29.4182 350.151 27.9591C350.151 26.6425 350.935 25.942 351.868 25.942ZM352.924 34.4795C353.127 34.4795 353.274 34.4961 353.274 34.4961C353.274 34.4961 353.754 34.8392 354.09 35.0955C354.871 35.7131 355.358 36.1852 355.358 37.026C355.358 38.182 354.285 39.0884 352.549 39.0884C350.643 39.0884 349.187 38.2008 349.187 36.7516C349.187 35.5511 350.185 34.5179 352.924 34.4795Z" fill="url(#paint2_linear_280_1468)"/>
<path d="M357.134 34.1522H360.796L361.354 33.5943L360.304 33.4631C360.021 33.4284 359.853 33.1841 359.853 32.9473V21.8845C359.853 21.6666 359.954 21.555 360.028 21.484L360.688 20.8235H357.566L356.753 21.6364H357.967V33.0958C357.967 33.2587 357.915 33.3695 357.805 33.4834L357.134 34.1522Z" fill="url(#paint3_linear_280_1468)"/>
<path d="M365.758 25.3425C363.713 25.3425 361.541 26.9012 361.541 29.6995C361.541 32.0106 363.099 34.4169 366.011 34.4169C366.737 34.4169 367.335 34.3235 367.895 34.0663C368.496 33.7896 369.074 33.3402 369.496 32.7754C368.7 33.1773 368.05 33.4412 367.186 33.4412C365.546 33.4412 363.964 32.2573 363.411 30.0811L369.206 27.7382C368.871 26.5446 367.927 25.3425 365.759 25.3425H365.758ZM365.379 25.9827C366.476 25.9827 367.269 26.8853 367.269 27.5919C367.269 27.8204 367.126 27.941 366.843 28.0526L363.28 29.4936C363.28 29.4936 363.184 29.045 363.184 28.5601C363.184 26.5264 364.654 25.9827 365.379 25.9827Z" fill="url(#paint4_linear_280_1468)"/>
<path d="M343.002 25.3425C339.948 25.3425 338.055 27.5746 338.055 29.9439C338.055 31.9889 339.58 34.4169 342.669 34.4169C345.64 34.4169 347.463 32.1804 347.463 29.7697C347.463 27.5241 345.681 25.3434 343.002 25.3434V25.3425ZM342.495 25.9933C344.649 25.9933 345.607 28.7991 345.607 30.8004C345.607 33.7767 343.375 33.8355 343.108 33.8355C342.087 33.8355 341.373 33.218 340.838 32.4081C340.368 31.6616 339.908 30.2748 339.908 28.9198C339.908 27.57 340.35 26.911 341.045 26.4261C341.613 26.0627 342.145 25.9933 342.494 25.9933H342.495Z" fill="url(#paint5_linear_280_1468)"/>
</g>
<g clip-path="url(#clip5_280_1468)">
<path d="M409.17 31.1882L408.833 32.145H408.805C408.749 31.9292 408.646 31.6009 408.478 31.207L406.673 26.6576H404.906V33.9085H406.075V29.4341C406.075 29.1527 406.075 28.8338 406.066 28.4398C406.056 28.2428 406.038 28.0927 406.028 27.9802H406.056C406.112 28.2616 406.178 28.4679 406.225 28.5993L408.394 33.8897H409.217L411.367 28.5524C411.414 28.4304 411.461 28.1865 411.507 27.9802H411.536C411.507 28.5148 411.489 28.9932 411.479 29.284V33.8803H412.723V26.6388H411.021L409.17 31.1882ZM413.901 28.6837H415.117V33.8803H413.901V28.6837ZM414.518 26.4887C414.313 26.4887 414.144 26.5638 414.004 26.6951C413.864 26.8264 413.789 26.9952 413.789 27.2016C413.789 27.3986 413.864 27.5674 414.004 27.6988C414.144 27.8301 414.313 27.8957 414.518 27.8957C414.724 27.8957 414.902 27.8207 415.032 27.6988C415.173 27.5674 415.248 27.3986 415.248 27.2016C415.248 27.0046 415.173 26.8358 415.032 26.6951C414.911 26.5638 414.733 26.4887 414.518 26.4887ZM419.427 28.6368C419.203 28.5899 418.969 28.5617 418.745 28.5617C418.193 28.5617 417.688 28.6837 417.267 28.9276C416.846 29.1715 416.51 29.5091 416.295 29.9312C416.07 30.3627 415.958 30.8599 415.958 31.4321C415.958 31.9292 416.07 32.3701 416.285 32.7734C416.5 33.1674 416.8 33.4863 417.202 33.7021C417.585 33.9178 418.034 34.0304 418.539 34.0304C419.119 34.0304 419.614 33.9085 420.007 33.6833L420.016 33.6739V32.5483L419.969 32.5858C419.792 32.7172 419.586 32.8297 419.38 32.8954C419.165 32.9704 418.969 33.008 418.801 33.008C418.314 33.008 417.931 32.8673 417.66 32.5577C417.379 32.2575 417.239 31.8448 417.239 31.3289C417.239 30.7942 417.379 30.3721 417.669 30.0626C417.959 29.753 418.342 29.5936 418.81 29.5936C419.203 29.5936 419.605 29.7249 419.969 29.9875L420.016 30.025V28.8338L420.007 28.8244C419.848 28.7587 419.67 28.6837 419.427 28.6368ZM423.438 28.5993C423.139 28.5993 422.859 28.6931 422.615 28.89C422.41 29.0589 422.27 29.3028 422.148 29.5936H422.139V28.6837H420.923V33.8803H422.139V31.2257C422.139 30.7755 422.232 30.4003 422.438 30.1282C422.644 29.8468 422.905 29.7061 423.223 29.7061C423.335 29.7061 423.448 29.7343 423.588 29.753C423.719 29.7905 423.812 29.8281 423.878 29.875L423.925 29.9125V28.6931L423.896 28.6837C423.812 28.6274 423.644 28.5993 423.438 28.5993ZM426.748 28.5711C425.897 28.5711 425.215 28.8244 424.738 29.3215C424.252 29.8187 424.018 30.5034 424.018 31.3664C424.018 32.1731 424.261 32.8297 424.729 33.3081C425.196 33.7771 425.832 34.021 426.627 34.021C427.459 34.021 428.123 33.7677 428.6 33.2612C429.086 32.7547 429.32 32.0793 429.32 31.2445C429.32 30.419 429.095 29.7624 428.637 29.284C428.198 28.8056 427.552 28.5711 426.748 28.5711ZM427.721 32.5671C427.496 32.8579 427.141 32.9986 426.702 32.9986C426.262 32.9986 425.907 32.8579 425.654 32.5483C425.402 32.2575 425.28 31.8354 425.28 31.3008C425.28 30.7473 425.411 30.3252 425.654 30.025C425.907 29.7249 426.253 29.5748 426.692 29.5748C427.122 29.5748 427.459 29.7155 427.702 30.0063C427.945 30.2971 428.076 30.7192 428.076 31.2726C428.057 31.8354 427.954 32.2763 427.721 32.5671ZM432.031 30.8411C431.648 30.6817 431.405 30.5597 431.292 30.4565C431.199 30.3627 431.152 30.2314 431.152 30.0626C431.152 29.9219 431.208 29.7812 431.349 29.6874C431.489 29.5936 431.648 29.5467 431.882 29.5467C432.087 29.5467 432.302 29.5842 432.508 29.6405C432.714 29.6967 432.901 29.7812 433.05 29.8937L433.097 29.9312V28.7869L433.069 28.7775C432.929 28.7212 432.742 28.6649 432.517 28.618C432.293 28.5805 432.087 28.5617 431.919 28.5617C431.339 28.5617 430.862 28.7024 430.488 29.012C430.114 29.3028 429.937 29.6967 429.937 30.1564C429.937 30.4003 429.974 30.616 430.058 30.7942C430.142 30.9724 430.264 31.1413 430.432 31.282C430.601 31.4133 430.844 31.5634 431.18 31.7041C431.461 31.826 431.676 31.9199 431.807 31.9949C431.938 32.0699 432.022 32.1544 432.087 32.22C432.134 32.2951 432.162 32.3889 432.162 32.5108C432.162 32.8579 431.9 33.0267 431.367 33.0267C431.162 33.0267 430.947 32.9892 430.694 32.9048C430.442 32.8203 430.208 32.6984 430.011 32.5577L429.965 32.5202V33.7115L429.993 33.7208C430.17 33.8053 430.385 33.8616 430.647 33.9272C430.909 33.9741 431.143 34.0116 431.349 34.0116C431.975 34.0116 432.489 33.8709 432.854 33.5614C433.228 33.2612 433.424 32.8766 433.424 32.3795C433.424 32.0324 433.331 31.7229 433.125 31.4884C432.854 31.2632 432.517 31.0287 432.031 30.8411ZM436.631 28.5711C435.781 28.5711 435.098 28.8244 434.621 29.3215C434.144 29.8187 433.901 30.5034 433.901 31.3664C433.901 32.1731 434.144 32.8297 434.612 33.3081C435.079 33.7771 435.715 34.021 436.51 34.021C437.342 34.021 438.006 33.7677 438.483 33.2612C438.969 32.7547 439.203 32.0793 439.203 31.2445C439.203 30.419 438.978 29.7624 438.52 29.284C438.081 28.8056 437.436 28.5711 436.631 28.5711ZM437.594 32.5671C437.37 32.8579 437.015 32.9986 436.575 32.9986C436.127 32.9986 435.781 32.8579 435.528 32.5483C435.276 32.2575 435.154 31.8354 435.154 31.3008C435.154 30.7473 435.285 30.3252 435.528 30.025C435.781 29.7249 436.127 29.5748 436.566 29.5748C436.987 29.5748 437.333 29.7155 437.576 30.0063C437.819 30.2971 437.95 30.7192 437.95 31.2726C437.95 31.8354 437.828 32.2763 437.594 32.5671ZM445.701 29.6874V28.6837H444.476V27.1453L444.439 27.1547L443.279 27.5018L443.251 27.5112V28.6837H441.419V28.0271C441.419 27.7269 441.494 27.4924 441.624 27.3423C441.755 27.1922 441.952 27.1172 442.195 27.1172C442.363 27.1172 442.541 27.1547 442.737 27.2391L442.784 27.2673V26.2073L442.756 26.1979C442.587 26.1416 442.363 26.1041 442.073 26.1041C441.709 26.1041 441.391 26.1885 441.101 26.3293C440.811 26.4887 440.596 26.7045 440.437 26.9952C440.278 27.2767 440.194 27.5956 440.194 27.9614V28.6837H439.343V29.678H440.194V33.8803H441.419V29.6874H443.251V32.3607C443.251 33.4582 443.766 34.0116 444.794 34.0116C444.962 34.0116 445.14 33.9835 445.308 33.9554C445.486 33.9178 445.617 33.8709 445.692 33.8334L445.701 33.824V32.8203L445.654 32.8579C445.58 32.9048 445.514 32.9423 445.402 32.9704C445.308 32.9986 445.224 33.008 445.159 33.008C444.916 33.008 444.747 32.9517 444.626 32.811C444.514 32.6796 444.458 32.4639 444.458 32.145V29.6874H445.701Z" fill="white"/>
<path d="M389.235 24.2188H394.967V29.9688H389.235V24.2188Z" fill="white"/>
<path d="M395.565 24.2188H401.297V29.9688H395.565V24.2188Z" fill="white"/>
<path d="M389.235 30.5692H394.967V36.3193H389.235V30.5692Z" fill="white"/>
<path d="M395.565 30.5692H401.297V36.3193H395.565V30.5692Z" fill="white"/>
</g>
<path fill-rule="evenodd" clip-rule="evenodd" d="M521.94 25.7957L521.735 27.8477L521.384 27.4079L520.915 26.9974L520.33 26.7629L519.744 26.6749L519.158 26.7629L518.719 26.9682L518.573 27.1147L518.426 27.2907L518.309 27.5544V28.0234L518.426 28.2287L518.602 28.4632L518.866 28.6681L519.012 28.8146L519.246 28.9611L519.598 29.1956L520.037 29.4886L520.418 29.7523L520.769 30.0456L521.091 30.2801L521.296 30.5145L521.589 30.8666L521.794 31.2473L521.882 31.6578L521.94 32.0391L521.882 32.6256L521.677 33.1531L521.355 33.5925L520.915 34.032L520.359 34.3252L519.773 34.5305L519.158 34.6767L518.456 34.7355L517.87 34.6767L517.255 34.6185L516.67 34.4425L516.025 34.2372L516.171 32.0388L516.377 32.4201L516.845 33.006L517.138 33.2112L517.489 33.4165L518.163 33.5925H518.602L519.246 33.5633L519.744 33.2993L519.92 33.1232L520.066 32.918L520.183 32.6835L520.213 32.3902L520.125 31.9508L519.832 31.5402L519.481 31.247L518.954 30.9245L518.368 30.573L517.929 30.221L517.548 29.928L517.255 29.635L516.962 29.3125L516.757 28.902L516.67 28.521L516.611 28.0813L516.67 27.495L516.845 26.9676L517.138 26.5278L517.577 26.1173L518.572 25.7363L519.158 25.6483L519.773 25.5898L520.359 25.6483L521.003 25.6776L521.354 25.7363H521.589L521.794 25.7948H521.94V25.7957ZM516.699 25.7957L516.611 25.8249L516.172 26.2647L515.967 26.5284L515.791 26.8214L515.498 27.1439L515.235 27.5544L514.415 28.7561L513.771 29.8409L513.39 30.4859L513.155 30.9546L513.038 31.5119L513.009 32.0978L512.951 32.7133V33.8572L513.009 34.1498L513.097 34.3843L513.185 34.5896H510.813L510.959 34.3262L511.047 34.0037L511.193 33.5051L511.252 32.8604L511.398 31.8344V30.9257L510.812 29.255L510.402 28.3755L509.963 27.496L509.582 26.8217L509.289 26.3235L508.996 25.9425L508.762 25.796L509.641 25.7375L510.314 25.6788L510.695 25.7375L510.988 25.884L511.105 25.972L511.193 26.1185L511.281 26.3238L511.398 26.5586L511.837 27.555L512.218 28.3758L512.452 29.05L512.657 29.5482L514.21 27.0565L514.415 26.6755L514.473 26.265V25.972L514.356 25.796L516.699 25.7957ZM509.583 34.5893L508.265 34.6191L507.767 34.5893L507.474 34.384L507.386 34.1495L507.24 33.739L507.035 33.2115L506.859 32.5376L506.654 31.8049L506.303 31.8923L505.864 31.9803L505.278 32.0391H503.522L503.375 32.4204L503.053 33.1235L502.994 33.2703L502.936 33.2996L502.789 33.7981L502.76 34.1495L502.789 34.589H496.611L496.699 34.3837L496.787 34.0911L496.904 33.739L496.991 33.2703L497.05 32.8309L497.079 32.2443L497.138 31.4525L497.226 30.5145L497.284 29.9871L497.342 28.9026L497.372 28.0819L497.43 27.4076V26.9094L497.372 26.5284L497.342 26.1767L497.284 25.9422L497.196 25.7957H499.568L499.48 25.9422L499.393 26.1767L499.275 26.5284L499.188 26.9974L499.129 27.4372L499.1 28.0822L499.041 28.8737L498.953 29.7824L498.895 30.3397V30.9257L498.836 31.4531L498.807 31.8926V32.2446L498.748 32.5379V32.9774L498.807 33.2119L498.895 33.3586L499.041 33.4168L499.334 33.4467H499.832L500.271 33.4168H500.593L500.857 33.3586L501.325 33.2119L501.765 32.9774L502.057 32.4207L502.409 31.8052L502.76 31.0725L503.141 30.2807L503.727 28.9614L504.019 28.4336L504.253 27.8766L504.459 27.4369L504.605 27.1144L504.692 26.7626L504.81 26.5281L504.839 26.3816L504.898 26.2644L504.839 26.0299L504.751 25.7954H506.713L508.031 30.6318L508.265 31.5116L508.47 32.2443L508.646 32.8309L508.851 33.2996L509.056 33.739L509.232 34.0911L509.378 34.3837L509.583 34.5893ZM496.025 32.3908L495.819 32.9774L495.585 33.4168L495.234 33.7981L494.853 34.1495L494.414 34.384L493.916 34.5893L493.389 34.6773L492.804 34.7361L492.013 34.6773L491.339 34.4428L490.695 34.0323L490.168 33.5636L489.729 32.9183L489.436 32.2736L489.29 31.5408L489.231 30.7789L489.29 29.6941L489.524 28.7269L489.875 27.8474L490.344 27.1147L491.047 26.4112L491.867 25.9714L492.804 25.6782L493.829 25.5901L494.356 25.6486L494.942 25.6779L495.527 25.7366L495.967 25.7951L495.732 28.0228L495.322 27.4366L494.854 26.9968L494.268 26.7623L493.624 26.6743L493.038 26.7623L492.511 26.9968L492.013 27.4073L491.633 27.9348L491.369 28.4626L491.193 29.0488L491.047 29.7523L490.988 30.4853L491.047 31.1008L491.193 31.6873L491.428 32.1853L491.72 32.6253L492.072 32.9768L492.511 33.2112L492.95 33.358L493.478 33.4162L494.063 33.299L494.707 33.1528L495.322 32.8303L496.025 32.3908ZM489.729 34.8826L488.938 34.9124H487.708L487.415 34.8244L487.269 34.7364L487.093 34.5311L484.633 31.1014L484.311 30.7789L484.106 30.6616L483.96 30.6318H483.901L483.813 31.9803V32.5668L483.755 33.0654V33.4467L483.813 33.8572L483.872 34.1797L483.901 34.4431L484.018 34.5893H481.675L481.851 34.1794L481.968 33.8569L481.997 33.4463L482.114 32.9771L482.144 32.3323L482.202 31.5116L482.29 30.5149L482.349 29.9874L482.407 28.9614L482.437 28.0819L482.495 27.4076V26.9094L482.437 26.4697L482.407 26.1764L482.349 25.9419L482.261 25.7954H486.068L486.595 25.8834L486.976 26.0299L487.386 26.2352L487.62 26.5281L487.825 26.8506L487.971 27.2024L488.001 27.6421L487.971 28.1404L487.854 28.5213L487.678 28.9023L487.473 29.2541L487.181 29.547L486.8 29.8403L486.361 30.0456L485.863 30.2213L486.068 30.4265L486.302 30.7786L488.118 33.1232L488.44 33.5925L488.792 34.003L488.997 34.2963L489.172 34.4717L489.729 34.8826ZM481.119 34.5893L479.801 34.6191L479.333 34.5893L479.04 34.384L478.923 34.1495L478.776 33.739L478.601 33.2115L478.396 32.5376L478.161 31.8049L477.868 31.8923L477.371 31.9803L476.843 32.0391H475.087L474.881 32.4204L474.501 33.2703L474.355 33.7978L474.237 34.1492L474.296 34.3252L474.354 34.5887H472.187L472.451 34.3252L472.685 34.0027L472.92 33.5922L473.212 33.1229L473.564 32.537L473.915 31.8332L474.237 31.1005L474.647 30.2797L475.262 28.9605L475.76 27.8757L475.965 27.436L476.258 26.7617L476.346 26.5272L476.404 26.3807V26.029L476.287 25.7945H478.191L479.508 30.6309L479.772 31.5107L480.211 32.83L480.358 33.2986L480.533 33.7381L480.738 34.0901L480.943 34.3828L481.119 34.5893ZM472.598 31.8341L472.539 32.3908L472.335 32.9183L472.012 33.3583L471.573 33.739L471.017 34.0911L470.343 34.3256L469.611 34.5308L468.82 34.589H465.746L465.863 34.3837L466.009 34.1492L466.038 33.7387L466.155 33.2993L466.185 32.8598L466.243 32.2443L466.331 31.5116L466.39 30.5149L466.448 29.9874L466.478 28.9029L466.536 28.0822L466.595 27.4079V26.47L466.536 26.1179L466.448 25.9422L466.331 25.7957H470.255L471.017 25.8837L471.309 26.0302L471.719 26.2647L472.012 26.558L472.158 26.9974L472.188 27.5544V27.8769L472.041 28.2875L471.865 28.5807L471.573 28.9032L470.928 29.343L470.196 29.6067L470.723 29.6947L471.163 29.8412L471.573 29.9877L471.895 30.2222L472.188 30.5742L472.393 30.9257L472.539 31.3651L472.598 31.8341ZM506.361 30.8669L505.483 27.8474L504.078 30.8669H506.361ZM486.244 27.9354L486.156 27.4372L485.922 27.1147L485.512 26.9094L484.926 26.8506H484.253L484.194 27.1439L484.165 27.5837L484.106 28.1699L484.048 28.9614L484.019 29.5476L484.399 29.6064L484.78 29.5476L485.483 29.3427L485.951 28.8734L486.098 28.6097L486.215 28.2871L486.244 27.9354ZM477.898 30.8669L477.02 27.8474L475.614 30.8669H477.898ZM470.489 27.8474L470.401 27.4076L470.108 27.0559L469.611 26.9094L468.966 26.8214L468.352 26.8506L468.147 28.7269V29.2544H468.352L469.171 29.1664L469.845 28.9026L470.108 28.7266L470.343 28.4629L470.431 28.1699L470.489 27.8474ZM470.724 31.8341V31.5116L470.636 31.1596L470.255 30.6616L469.962 30.5149L469.172 30.3394H468.059L467.942 31.5999L467.913 32.4207L467.854 33.2119L467.913 33.2999L468.088 33.3586L468.352 33.4467H469.172L469.552 33.3586L469.904 33.2119L470.196 33.0066L470.431 32.8312L470.636 32.5379L470.724 32.1859V31.8341Z" fill="white"/>
</g>
<defs>
<linearGradient id="paint0_linear_280_1468" x1="319.931" y1="20.5364" x2="319.931" y2="34.6092" gradientUnits="userSpaceOnUse">
<stop offset="1" stop-color="white"/>
</linearGradient>
<linearGradient id="paint1_linear_280_1468" x1="332.361" y1="25.321" x2="332.361" y2="34.4207" gradientUnits="userSpaceOnUse">
<stop offset="1" stop-color="white"/>
</linearGradient>
<linearGradient id="paint2_linear_280_1468" x1="352.013" y1="25.3211" x2="352.013" y2="39.9317" gradientUnits="userSpaceOnUse">
<stop stop-color="white"/>
</linearGradient>
<linearGradient id="paint3_linear_280_1468" x1="359.02" y1="20.7921" x2="359.02" y2="34.165" gradientUnits="userSpaceOnUse">
<stop stop-color="white"/>
</linearGradient>
<linearGradient id="paint4_linear_280_1468" x1="365.486" y1="25.321" x2="365.486" y2="34.3956" gradientUnits="userSpaceOnUse">
<stop offset="1" stop-color="white"/>
</linearGradient>
<linearGradient id="paint5_linear_280_1468" x1="342.725" y1="25.3408" x2="342.725" y2="34.4027" gradientUnits="userSpaceOnUse">
<stop stop-color="white"/>
</linearGradient>
<clipPath id="clip0_280_1468">
<rect width="530" height="60.5023" fill="white"/>
</clipPath>
<clipPath id="clip1_280_1468">
<rect width="56.5024" height="23.3803" fill="white" transform="translate(84.1389 18.561)"/>
</clipPath>
<clipPath id="clip2_280_1468">
<rect width="56.1327" height="12.1734" fill="white" transform="translate(160.614 24.1644)"/>
</clipPath>
<clipPath id="clip3_280_1468">
<rect width="56.4688" height="16.9406" fill="white" transform="translate(236.737 21.7808)"/>
</clipPath>
<clipPath id="clip4_280_1468">
<rect width="56.4688" height="19.3607" fill="white" transform="translate(313.027 20.5707)"/>
</clipPath>
<clipPath id="clip5_280_1468">
<rect width="56.6369" height="12.0647" fill="white" transform="translate(389.234 24.2188)"/>
</clipPath>
</defs>
</svg>
