<svg width="24" height="24" viewBox="0 0 24 24" fill="none" xmlns="http://www.w3.org/2000/svg">
<path fill-rule="evenodd" clip-rule="evenodd" d="M12 23C18.0751 23 23 18.0751 23 12C23 5.92487 18.0751 1 12 1C5.92487 1 1 5.92487 1 12C1 18.0751 5.92487 23 12 23ZM13 6C13 5.44772 12.5523 5 12 5C11.4477 5 11 5.44772 11 6V6.58552C9.58876 6.91197 8.5 8.13822 8.5 9.66079C8.5 11.1762 9.5949 12.4417 11.0643 12.7503L12.4566 13.0427C13.0935 13.1765 13.5 13.7016 13.5 14.2561C13.5 14.905 12.9401 15.5 12.1626 15.5H12C11.2739 15.5 10.7015 15.0259 10.5446 14.441C10.4016 13.9076 9.85324 13.5911 9.3198 13.7341C8.78636 13.8771 8.46985 14.4255 8.61287 14.959C8.92517 16.1238 9.84441 17.0244 11 17.3588V18C11 18.5523 11.4477 19 12 19C12.5523 19 13 18.5523 13 18V17.3962C14.4169 17.0384 15.5 15.794 15.5 14.2561C15.5 12.7016 14.3768 11.4023 12.8676 11.0854L11.4753 10.793C10.8781 10.6676 10.5 10.1762 10.5 9.66079C10.5 9.05779 11.0211 8.5 11.7508 8.5H12C12.7261 8.5 13.2985 8.97408 13.4554 9.55896C13.5984 10.0924 14.1468 10.4089 14.6802 10.2659C15.2136 10.1229 15.5301 9.57448 15.3871 9.04104C15.0748 7.8762 14.1556 6.97564 13 6.6412V6Z" fill="white"/>
</svg>
