<svg width="24" height="24" viewBox="0 0 24 24" fill="none" xmlns="http://www.w3.org/2000/svg">
<path d="M7.1001 5.656C6.9721 5.828 6.9041 6.012 6.9041 6.208C6.9041 7.304 9.3041 8.692 11.9961 8.692C14.6881 8.692 17.0881 7.304 17.0881 6.208C17.0881 6.012 17.0201 5.828 16.8921 5.656C17.8081 5.296 18.3921 4.812 18.3921 4.196C18.3961 2.756 15.1761 2 12.0001 2C8.8201 2 5.6001 2.756 5.6001 4.196C5.6001 4.808 6.1881 5.296 7.1001 5.656Z" fill="white"/>
<path d="M12.0002 9.49199C10.2562 9.49199 8.56824 8.95999 7.44824 8.18799C7.75224 10.228 8.75624 13.98 12.0002 13.98C15.2402 13.98 16.2442 10.228 16.5482 8.18799C15.4282 8.95999 13.7442 9.49199 12.0002 9.49199Z" fill="white"/>
<path d="M13.8279 15.812L13.9399 16.832L15.3039 14.152C15.1359 14.04 14.9839 13.896 14.8359 13.736C14.2719 14.22 13.6279 14.536 12.9199 14.684C13.3999 14.808 13.7679 15.244 13.8279 15.812Z" fill="white"/>
<path d="M9.13591 13.7159C8.97991 13.8919 8.80791 14.0599 8.60791 14.1919L10.0359 16.9999L10.1679 15.8119C10.2319 15.2439 10.5959 14.8079 11.0759 14.6839C10.3599 14.5319 9.70791 14.2079 9.13591 13.7159Z" fill="white"/>
<path d="M17.624 15.012L16.032 14.488L12.396 21.624L12.588 22H20.936C21.156 22 21.336 21.82 21.336 21.6V20.144C21.336 17.808 19.844 15.744 17.624 15.012ZM18.684 18.484C18.612 18.54 18.524 18.568 18.436 18.568C18.32 18.568 18.2 18.516 18.124 18.416C17.784 17.988 17.328 17.668 16.804 17.496C16.596 17.428 16.48 17.2 16.548 16.992C16.62 16.78 16.844 16.668 17.056 16.736C17.728 16.956 18.312 17.368 18.752 17.92C18.888 18.096 18.856 18.344 18.684 18.484Z" fill="white"/>
<path d="M13.0362 15.9C13.0082 15.64 12.8402 15.444 12.6402 15.444H11.3602C11.1602 15.444 10.9922 15.636 10.9642 15.9L10.7002 18.3L11.9482 20.748L13.2802 18.136L13.0362 15.9Z" fill="white"/>
<path d="M11.5001 21.624L7.87606 14.52L6.37606 15.012C4.15206 15.744 2.66406 17.808 2.66406 20.144V21.6C2.66406 21.82 2.84006 22 3.06406 22H11.3081L11.5001 21.624ZM7.19206 17.496C6.66806 17.668 6.21206 17.988 5.87606 18.416C5.79606 18.516 5.68006 18.568 5.56006 18.568C5.47206 18.568 5.38406 18.54 5.31206 18.484C5.14006 18.344 5.10806 18.096 5.24806 17.92C5.68406 17.368 6.26806 16.956 6.94406 16.736C7.15206 16.668 7.38006 16.78 7.44806 16.992C7.51606 17.2 7.40406 17.428 7.19206 17.496Z" fill="white"/>
</svg>
