<svg width="13" height="19" viewBox="0 0 13 19" fill="none" xmlns="http://www.w3.org/2000/svg">
<path d="M6.33553 0C2.84214 0 0 2.84214 0 6.33553C0 10.7263 6.34176 18.2267 6.34176 18.2267C6.34176 18.2267 12.6711 10.5104 12.6711 6.33553C12.6711 2.84214 9.82903 0 6.33553 0ZM8.24709 8.19058C7.72 8.71755 7.02782 8.9811 6.33553 8.9811C5.64335 8.9811 4.95095 8.71755 4.42408 8.19058C3.37001 7.13662 3.37001 5.42163 4.42408 4.36757C4.93448 3.85694 5.61342 3.57571 6.33553 3.57571C7.05763 3.57571 7.73646 3.85705 8.24709 4.36757C9.30116 5.42163 9.30116 7.13662 8.24709 8.19058Z" fill="#FDC65C"/>
</svg>
