<svg width="9" height="16" viewBox="0 0 9 16" fill="none" xmlns="http://www.w3.org/2000/svg">
<path d="M8.50581 5.7718C8.50581 5.09377 8.13034 4.50808 7.58111 4.19458C8.10604 4.06092 8.50581 3.60403 8.50581 3.03779C8.50581 2.84459 8.45721 2.66354 8.37337 2.50679C8.06594 1.4387 7.37454 0.549233 6.4547 0H2.05112C1.13006 0.549233 0.439872 1.4387 0.131232 2.50679C0.0486044 2.66475 0 2.8458 0 3.03779C0 3.60282 0.399773 4.0597 0.924704 4.19337C0.375471 4.50808 0 5.09377 0 5.7718C0 6.45105 0.375471 7.03552 0.925919 7.35024C0.398558 7.48269 0 7.93835 0 8.50581V14.5814C0 15.2521 0.544372 15.7965 1.21512 15.7965H7.2907C7.96144 15.7965 8.50581 15.2521 8.50581 14.5814V8.50581C8.50581 7.93714 8.10726 7.48147 7.5799 7.34902C8.13034 7.03552 8.50581 6.45105 8.50581 5.7718Z" fill="#FDC65C"/>
</svg>
