<svg width="15" height="20" viewBox="0 0 15 20" fill="none" xmlns="http://www.w3.org/2000/svg">
<path d="M14.0858 9.89815L14.0854 9.89777L10.5188 6.62857C10.1302 6.27243 9.67092 6.02113 9.1799 5.86145C9.99467 5.27235 10.531 4.32035 10.531 3.24034C10.531 1.45362 9.07738 0 7.2907 0C5.50402 0 4.0504 1.45362 4.0504 3.2403C4.0504 4.32035 4.58676 5.27231 5.40153 5.86142C4.91051 6.02105 4.4512 6.27239 4.06267 6.62853L0.495616 9.89811C0.180749 10.1873 0 10.5982 0 11.0259C0 11.8696 0.686655 12.5562 1.55926 12.5562C1.96192 12.5562 2.3563 12.3929 2.64109 12.1081L4.09316 10.656C4.13903 11.1504 4.22169 11.6294 4.34036 12.0895L2.88157 14.1146C2.31476 14.8701 2.28628 15.9053 2.80999 16.6912L4.21061 18.792C4.48154 19.199 4.93523 19.4419 5.4277 19.4419C6.23146 19.4419 6.88568 18.7876 6.88568 17.9839V17.7861C6.88568 17.4566 6.77215 17.1331 6.56649 16.8752L5.43761 15.4646L6.07444 14.9872C6.84498 15.5244 7.73653 15.5244 8.50707 14.9872L9.14349 15.4646L8.01498 16.8755C7.80929 17.133 7.69579 17.4566 7.69579 17.7861V17.9838C7.69579 18.7876 8.35001 19.4418 9.15734 19.4418C9.64624 19.4418 10.0999 19.1989 10.3705 18.7923L11.7874 16.6671C12.3016 15.8962 12.2735 14.8796 11.7221 14.1439L10.2412 12.089C10.3598 11.6294 10.4425 11.1504 10.4884 10.6559L11.9404 12.108C12.2252 12.3928 12.6196 12.5561 13.0511 12.5561C13.8948 12.5561 14.5815 11.8695 14.5815 11.0258C14.5814 10.5982 14.4006 10.1873 14.0858 9.89815ZM7.2907 14.5814C6.44581 14.5814 5.63575 13.6238 5.19709 12.1512H9.38434C8.94565 13.6238 8.13558 14.5814 7.2907 14.5814Z" fill="#FDC65C"/>
</svg>
