<svg width="20" height="17" viewBox="0 0 20 17" fill="none" xmlns="http://www.w3.org/2000/svg">
<path d="M11.7323 2.80819C12.6313 3.37182 13.2616 4.32559 13.3764 5.43271C13.743 5.604 14.1499 5.70251 14.5813 5.70251C16.1562 5.70251 17.4326 4.42604 17.4326 2.85138C17.4326 1.27647 16.1562 0 14.5813 0C13.0214 0.000485258 11.7561 1.25415 11.7323 2.80819ZM9.86432 8.64633C11.4392 8.64633 12.7157 7.36961 12.7157 5.79495C12.7157 4.22029 11.439 2.94382 9.86432 2.94382C8.28966 2.94382 7.01246 4.22053 7.01246 5.79519C7.01246 7.36986 8.28966 8.64633 9.86432 8.64633ZM11.0738 8.84067H8.65433C6.64124 8.84067 5.0035 10.4787 5.0035 12.4918V15.4506L5.01102 15.497L5.21483 15.5608C7.13596 16.161 8.80501 16.3612 10.1788 16.3612C12.862 16.3612 14.4173 15.5962 14.5131 15.5474L14.7036 15.4511H14.7239V12.4918C14.7247 10.4787 13.0869 8.84067 11.0738 8.84067ZM15.7913 5.8971H13.3905C13.3645 6.85767 12.9544 7.72264 12.3059 8.34474C14.0953 8.87682 15.4045 10.5362 15.4045 12.4961V13.4079C17.775 13.3211 19.141 12.6492 19.231 12.6041L19.4215 12.5075H19.4419V9.54769C19.4419 7.53484 17.8041 5.8971 15.7913 5.8971ZM4.86107 5.70299C5.41888 5.70299 5.93786 5.54019 6.3775 5.26287C6.51726 4.35131 7.00591 3.55476 7.70396 3.01224C7.70687 2.95886 7.71196 2.90597 7.71196 2.8521C7.71196 1.2772 6.43525 0.000727834 4.86107 0.000727834C3.28592 0.000727834 2.0097 1.2772 2.0097 2.8521C2.0097 4.42628 3.28592 5.70299 4.86107 5.70299ZM7.42178 8.34474C6.77639 7.72579 6.3678 6.86543 6.33795 5.91069C6.24891 5.90413 6.16084 5.8971 6.07009 5.8971H3.65084C1.63775 5.8971 0 7.53484 0 9.54769V12.507L0.0075215 12.5527L0.21133 12.617C1.75251 13.0981 3.12797 13.3198 4.32268 13.3897V12.4961C4.32316 10.5362 5.6319 8.87731 7.42178 8.34474Z" fill="#FDC65C"/>
</svg>
