<svg width="22" height="18" viewBox="0 0 22 18" fill="none" xmlns="http://www.w3.org/2000/svg">
<path fill-rule="evenodd" clip-rule="evenodd" d="M10.8778 0.00463332C9.17225 -0.0521667 7.44905 0.413166 5.96131 1.40623C4.29038 2.52277 3.12265 4.17157 2.58478 6.01477C2.43625 5.99663 2.25838 6.00463 2.04718 6.06437C1.25864 6.2881 0.665578 6.93423 0.398912 7.5033C0.0530448 8.2449 -0.0928219 9.2257 0.0610448 10.2382C0.213845 11.2476 0.640245 12.0796 1.17358 12.5961C1.70851 13.1129 2.31251 13.2809 2.91251 13.1548C3.80585 12.9641 4.24878 12.8214 4.12371 11.9892L3.51811 7.95477C3.64024 5.7713 4.77064 3.71583 6.66131 2.45183C9.19198 0.761433 12.5098 0.8697 14.9237 2.72277C16.6029 4.01023 17.5778 5.9393 17.6904 7.96437L17.2669 10.7865C16.3224 13.3713 13.9808 15.1617 11.2712 15.4158H9.46691C9.00131 15.4158 8.62638 15.7908 8.62638 16.2558V16.699C8.62638 17.1644 9.00131 17.5393 9.46691 17.5393H11.7418C12.2072 17.5393 12.5805 17.1644 12.5805 16.699V16.4673C14.6237 15.9686 16.4072 14.7129 17.5685 12.9617L18.2973 13.155C18.8904 13.3089 19.5016 13.1129 20.0362 12.5964C20.5696 12.0796 20.9957 11.2478 21.1488 10.2385C21.3032 9.22597 21.153 8.24677 20.8112 7.50357C20.468 6.76037 19.9568 6.28837 19.3666 6.11903C19.1194 6.04783 18.8512 6.0217 18.621 6.01477C18.1346 4.3481 17.1333 2.83237 15.6901 1.7257C14.2712 0.6369 12.5834 0.0606333 10.8778 0.00463332Z" fill="white"/>
<path fill-rule="evenodd" clip-rule="evenodd" d="M13.5404 7.26279C14.1418 7.26279 14.6292 7.75026 14.6306 8.35319C14.6292 8.95452 14.1418 9.44332 13.5404 9.44332C12.9375 9.44332 12.4487 8.95452 12.4487 8.35319C12.4487 7.75052 12.9378 7.26279 13.5404 7.26279ZM10.6044 7.26279C11.2071 7.26279 11.6946 7.75026 11.6946 8.35319C11.6946 8.95452 11.2071 9.44332 10.6044 9.44332C10.0012 9.44332 9.51377 8.95452 9.51377 8.35319C9.51377 7.75052 10.0012 7.26279 10.6044 7.26279ZM7.6695 7.26279C8.27083 7.26279 8.75963 7.75026 8.75963 8.35319C8.75963 8.95452 8.27083 9.44332 7.6695 9.44332C7.06683 9.44332 6.5791 8.95452 6.5791 8.35319C6.5791 7.75052 7.06683 7.26279 7.6695 7.26279ZM10.6044 2.57959C7.4071 2.57959 4.83057 5.07132 4.83057 8.35319C4.83057 9.92946 5.42657 11.3225 6.3975 12.3447L6.05297 13.8892C5.93937 14.3975 6.2919 14.7393 6.7487 14.4849L8.25697 13.6436C8.97377 13.9548 9.76657 14.1268 10.6044 14.1268C13.8028 14.1268 16.3778 11.6367 16.3778 8.35319C16.3778 5.07132 13.8028 2.57959 10.6044 2.57959Z" fill="white"/>
</svg>
