<svg width="24" height="24" viewBox="0 0 24 24" fill="none" xmlns="http://www.w3.org/2000/svg">
<path d="M22.8751 13.3031C22.8751 12.8422 22.499 12.4627 22.0348 12.4627H20.8183C20.4755 11.5338 19.9408 10.7486 19.7675 10.509C19.4431 10.0556 18.9121 9.78259 18.3519 9.78259H10.7469C10.1866 9.78259 9.65563 10.0552 9.33126 10.509C9.15801 10.7486 8.62363 11.5301 8.28051 12.4627H7.06401C6.59938 12.4627 6.22363 12.8426 6.22363 13.3031C6.22363 13.6166 6.39688 13.9038 6.67326 14.0478L7.06401 14.2541C7.00513 14.5526 6.97926 14.8698 6.97926 15.2013V19.2086C6.97926 19.614 7.31113 19.9421 7.71651 19.9421H9.09163C9.49701 19.9421 9.82513 19.614 9.82513 19.2086V18.8917C11.2738 18.9765 13.0693 19.0612 14.5513 19.0612C16.0333 19.0612 17.825 18.9765 19.2736 18.8917V19.2086C19.2736 19.614 19.6018 19.9421 20.0071 19.9421H21.3823C21.7876 19.9421 22.1158 19.614 22.1158 19.2086V16.7201C22.1195 16.698 22.1195 16.6721 22.1195 16.65V15.2013C22.1195 14.8695 22.0936 14.5526 22.0348 14.2541L22.4255 14.0478C22.7019 13.9042 22.8751 13.6166 22.8751 13.3031ZM9.92826 10.9402C10.1161 10.6785 10.4221 10.5198 10.7465 10.5198H18.3515C18.6759 10.5198 18.9819 10.6785 19.1698 10.9402C19.3138 11.1431 19.7521 11.7806 20.0619 12.5512C18.5356 12.5107 15.9035 12.4627 14.5505 12.4627C13.1975 12.4627 10.5691 12.5107 9.03913 12.5512C9.34513 11.7806 9.78013 11.1431 9.92751 10.9402H9.92826ZM11.528 16.1013C11.495 16.4625 11.141 17.1483 10.0535 17.1483C9.54126 17.1483 9.02488 16.8791 8.60488 16.3927C8.18826 15.9097 7.92651 15.2831 7.98201 14.9107C8.00788 14.7375 8.13688 14.4498 8.76351 14.4645C9.48988 14.4866 11.4361 14.9988 11.5284 16.0312V16.1013H11.528ZM16.4383 17.1483H12.6598C12.1951 17.1483 11.8156 16.7538 11.8156 16.2708C11.8156 15.7878 12.1955 15.3933 12.6598 15.3933H16.4383C16.9029 15.3933 17.2824 15.7878 17.2824 16.2708C17.2824 16.7538 16.9025 17.1483 16.4383 17.1483ZM20.4935 16.3927C20.0731 16.8795 19.5571 17.1483 19.0449 17.1483C17.9536 17.1483 17.6034 16.4628 17.5704 16.1013V16.0312C17.6626 14.9988 19.6126 14.4866 20.3353 14.4645C20.9548 14.4536 21.0909 14.7371 21.1168 14.9107C21.1719 15.2831 20.9101 15.9097 20.4939 16.3927H20.4935Z" fill="white"/>
<path d="M1.88062 13.4839C1.88062 13.8892 2.2125 14.2174 2.61787 14.2174H3.993C4.39837 14.2174 4.7265 13.8892 4.7265 13.4839V13.167C4.97362 13.1816 5.22787 13.1966 5.48962 13.2112C5.53762 12.3855 6.22312 11.7255 7.06388 11.7255H7.7865C7.8345 11.6224 7.87875 11.5192 7.93012 11.4232H7.5615C7.09687 11.4232 6.71737 11.0287 6.71737 10.5457C6.71737 10.0627 7.09725 9.66824 7.5615 9.66824H9.09863C9.54825 9.27374 10.1344 9.04537 10.7464 9.04537H17.0021C16.9909 8.86837 16.9688 8.69512 16.9357 8.52937L17.3265 8.32274C17.6029 8.17912 17.7761 7.89149 17.7761 7.578C17.7761 7.11712 17.4 6.73762 16.9357 6.73762H15.7192C15.3765 5.80874 14.8418 5.0235 14.6685 4.78387C14.3441 4.3305 13.8131 4.0575 13.2529 4.0575H5.64825C5.088 4.0575 4.557 4.33012 4.23263 4.78387C4.05937 5.0235 3.525 5.80499 3.18187 6.73762H1.96538C1.50075 6.73762 1.125 7.1175 1.125 7.578C1.125 7.89149 1.29825 8.17874 1.57462 8.32274L1.96538 8.52937C1.9065 8.82787 1.88062 9.14512 1.88062 9.47662V13.4839ZM4.83 5.21512C5.01787 4.95337 5.32387 4.79475 5.64825 4.79475H13.2533C13.5776 4.79475 13.8836 4.95337 14.0715 5.21512C14.2151 5.41799 14.6539 6.05549 14.9636 6.82612C13.4374 6.78562 10.8053 6.73762 9.45225 6.73762C8.09925 6.73762 5.47087 6.78562 3.94088 6.82612C4.24687 6.05549 4.68187 5.41799 4.82925 5.21512H4.83ZM2.88338 9.18524C2.90925 9.01199 3.03825 8.72437 3.66488 8.739C4.39125 8.76112 6.3375 9.27337 6.42975 10.3057V10.3759C6.39675 10.737 6.04275 11.4229 4.95525 11.4229C4.443 11.4229 3.92663 11.1536 3.50662 10.6672C3.09 10.1842 2.82788 9.55762 2.88338 9.18524Z" fill="white"/>
</svg>
