<svg width="21" height="18" viewBox="0 0 21 18" fill="none" xmlns="http://www.w3.org/2000/svg">
<path d="M16.875 11.25C16.1773 11.251 15.497 11.4677 14.9274 11.8706C14.3577 12.2734 13.9266 12.8425 13.6931 13.5H4.875C4.17881 13.5 3.51113 13.2234 3.01885 12.7312C2.52656 12.2389 2.25 11.5712 2.25 10.875C2.25 10.1788 2.52656 9.51113 3.01885 9.01884C3.51113 8.52656 4.17881 8.25 4.875 8.25H13.875C14.969 8.25 16.0182 7.8154 16.7918 7.04182C17.5654 6.26823 18 5.21902 18 4.125C18 3.03098 17.5654 1.98177 16.7918 1.20818C16.0182 0.434597 14.969 0 13.875 0H4.875C4.57663 6.28765e-09 4.29048 0.118526 4.0795 0.329505C3.86853 0.540483 3.75 0.826631 3.75 1.125C3.75 1.42337 3.86853 1.70952 4.0795 1.9205C4.29048 2.13147 4.57663 2.25 4.875 2.25H13.875C14.3723 2.25 14.8492 2.44754 15.2008 2.79917C15.5525 3.15081 15.75 3.62772 15.75 4.125C15.75 4.62228 15.5525 5.09919 15.2008 5.45083C14.8492 5.80246 14.3723 6 13.875 6H4.875C3.58207 6 2.34209 6.51361 1.42785 7.42785C0.513614 8.34209 0 9.58207 0 10.875C0 12.1679 0.513614 13.4079 1.42785 14.3221C2.34209 15.2364 3.58207 15.75 4.875 15.75H13.6931C13.8994 16.3334 14.262 16.8488 14.7414 17.24C15.2209 17.6311 15.7986 17.883 16.4115 17.968C17.0243 18.053 17.6488 17.9679 18.2166 17.722C18.7843 17.476 19.2736 17.0787 19.6308 16.5735C19.988 16.0683 20.1995 15.4746 20.2421 14.8573C20.2847 14.24 20.1568 13.6229 19.8723 13.0734C19.5879 12.524 19.1578 12.0632 18.6292 11.7416C18.1006 11.4201 17.4938 11.25 16.875 11.25ZM16.875 15.75C16.6525 15.75 16.435 15.684 16.25 15.5604C16.065 15.4368 15.9208 15.2611 15.8356 15.0555C15.7505 14.85 15.7282 14.6238 15.7716 14.4055C15.815 14.1873 15.9222 13.9868 16.0795 13.8295C16.2368 13.6722 16.4373 13.565 16.6555 13.5216C16.8738 13.4782 17.1 13.5005 17.3055 13.5856C17.5111 13.6708 17.6868 13.815 17.8104 14C17.934 14.185 18 14.4025 18 14.625C18 14.9234 17.8815 15.2095 17.6705 15.4205C17.4595 15.6315 17.1734 15.75 16.875 15.75Z" fill="white"/>
</svg>
